<svg width="21" height="31" viewBox="0 0 21 31" fill="none" xmlns="http://www.w3.org/2000/svg">
<path d="M7.91793 30.3352C5.6317 29.9802 3.24605 28.1768 2.30884 26.4869C1.03081 24.1723 1.05921 21.7157 1.45682 19.1738C2.50764 12.5281 1.45682 11.6761 0.363403 10.3555C2.22364 11.1507 3.95606 11.8181 5.09208 13.2239C6.48371 8.92124 6.86712 5.64099 12.3342 0.486298C12.1496 1.69332 11.8088 2.90034 11.7946 4.13576C11.7236 7.96983 14.8193 11.4915 15.4725 12.3719C17.2333 14.7291 18.1847 17.2852 18.1279 20.1252V20.537C19.0367 19.7418 19.6331 18.3644 19.8035 16.6178C20.968 18.0662 21.2662 20.6932 20.7692 22.5109C19.5621 26.9556 16.9351 29.2702 12.7744 30.3068C11.5532 30.6192 9.21016 30.534 7.91793 30.3352Z" fill="url(#paint0_linear_1_511)"/>
<path opacity="0.42" d="M7.91793 30.3352C5.6317 29.9802 3.24605 28.1768 2.30884 26.4869C1.03081 24.1723 1.05921 21.7157 1.45682 19.1738C2.50764 12.5281 1.45682 11.6761 0.363403 10.3555C2.22364 11.1507 3.95606 11.8181 5.09208 13.2239C6.48371 8.92124 6.86712 5.64099 12.3342 0.486298C12.1496 1.69332 11.8088 2.90034 11.7946 4.13576C11.7236 7.96983 14.8193 11.4915 15.4725 12.3719C17.2333 14.7291 18.1847 17.2852 18.1279 20.1252V20.537C19.0367 19.7418 19.6331 18.3644 19.8035 16.6178C20.968 18.0662 21.2662 20.6932 20.7692 22.5109C19.5621 26.9556 16.9351 29.2702 12.7744 30.3068C11.5532 30.6192 9.21016 30.534 7.91793 30.3352Z" fill="url(#paint1_linear_1_511)"/>
<path d="M7.90281 30.3636C6.24138 30.0654 4.50895 28.5176 3.82734 27.0691C2.90433 25.0811 2.91853 22.9795 3.20253 20.8068C3.96934 15.1125 3.20253 14.3883 2.40732 13.2523C3.75634 13.9339 5.02016 14.5019 5.84378 15.7232C6.85199 12.0453 7.136 9.21944 11.1121 4.80316C10.9843 5.83978 10.7287 6.8764 10.7145 7.92722C10.6719 11.2217 12.9723 13.5363 13.4409 14.2747C14.7189 16.2912 16.4656 18.123 16.4798 20.1252C16.4798 21.9571 15.2443 24.1297 15.2443 23.7747C16.3378 23.4907 18.7092 22.0707 19.3056 20.537C19.8452 23.1499 18.7234 25.1521 17.9992 26.2597C16.778 28.12 15.2443 29.4548 12.7593 30.321C11.8931 30.605 8.84003 30.534 7.90281 30.3636Z" fill="url(#paint2_linear_1_511)"/>
<path opacity="0.42" d="M7.90281 30.3636C6.24138 30.0654 4.50895 28.5176 3.82734 27.0691C2.90433 25.0811 2.91853 22.9795 3.20253 20.8068C3.96934 15.1125 3.20253 14.3883 2.40732 13.2523C3.75634 13.9339 5.02016 14.5019 5.84378 15.7232C6.85199 12.0453 7.136 9.21944 11.1121 4.80316C10.9843 5.83978 10.7287 6.8764 10.7145 7.92722C10.6719 11.2217 12.9723 13.5363 13.4409 14.2747C14.7189 16.2912 16.4656 18.123 16.4798 20.1252C16.4798 21.9571 15.2443 24.1297 15.2443 23.7747C16.3378 23.4907 18.7092 22.0707 19.3056 20.537C19.8452 23.1499 18.7234 25.1521 17.9992 26.2597C16.778 28.12 15.2443 29.4548 12.7593 30.321C11.8931 30.605 8.84003 30.534 7.90281 30.3636Z" fill="url(#paint3_linear_1_511)"/>
<path d="M8.67157 30.3352C7.57815 30.0938 6.47053 29.4122 5.71792 28.3756C5.05051 27.4667 4.7807 25.9473 5.0505 24.4989C5.46231 22.1985 5.57591 19.0886 5.0505 18.1798C5.94512 18.7194 6.76873 19.1738 7.32254 20.1394C7.98995 17.2142 7.79115 15.2971 10.4182 11.7897C10.333 12.6133 10.1626 13.4369 10.1626 14.2747C10.1342 16.8876 11.611 18.123 12.3494 18.9892C13.7695 20.679 14.6215 22.4541 14.6215 24.0303C14.6215 25.4929 14.0251 25.9189 13.315 26.6289C14.3517 26.3591 15.0759 26.0751 15.7291 25.3083C15.9705 27.4099 13.315 29.9092 11.327 30.392C10.3472 30.6192 9.29638 30.4772 8.67157 30.3352Z" fill="url(#paint4_linear_1_511)"/>
<path opacity="0.42" d="M8.67157 30.3352C7.57815 30.0938 6.47053 29.4122 5.71792 28.3756C5.05051 27.4667 4.7807 25.9473 5.0505 24.4989C5.46231 22.1985 5.57591 19.0886 5.0505 18.1798C5.94512 18.7194 6.76873 19.1738 7.32254 20.1394C7.98995 17.2142 7.79115 15.2971 10.4182 11.7897C10.333 12.6133 10.1626 13.4369 10.1626 14.2747C10.1342 16.8876 11.611 18.123 12.3494 18.9892C13.7695 20.679 14.6215 22.4541 14.6215 24.0303C14.6215 25.4929 14.0251 25.9189 13.315 26.6289C14.3517 26.3591 15.0759 26.0751 15.7291 25.3083C15.9705 27.4099 13.315 29.9092 11.327 30.392C10.3472 30.6192 9.29638 30.4772 8.67157 30.3352Z" fill="url(#paint5_linear_1_511)"/>
<path d="M9.11177 30.392C8.41596 30.2358 7.63494 29.7956 7.15214 29.114C6.72613 28.5034 6.56993 27.3389 6.81133 26.3875C7.25154 24.5983 7.13794 22.7665 6.81133 22.1701C7.37934 22.5393 7.90475 22.8375 8.25976 23.4765C8.68576 21.5168 8.55796 20.253 10.2336 17.8958C10.1768 18.4496 10.0774 19.0034 10.0632 19.5572C10.049 21.3038 10.9862 22.1275 11.4548 22.7097C12.3636 23.8315 12.6334 25.0243 12.6476 26.0751C12.6476 27.0549 12.2642 27.5804 11.824 28.0632C12.5766 28.0206 13.4144 27.5804 13.8263 27.0691C13.9825 28.475 12.2216 30.1364 10.9578 30.463C10.333 30.5908 9.50938 30.4772 9.11177 30.392Z" fill="url(#paint6_linear_1_511)"/>
<defs>
<linearGradient id="paint0_linear_1_511" x1="10.6723" y1="0.514698" x2="10.6723" y2="30.5145" gradientUnits="userSpaceOnUse">
<stop offset="3.2e-07" stop-color="white"/>
<stop offset="1" stop-color="white"/>
</linearGradient>
<linearGradient id="paint1_linear_1_511" x1="10.6723" y1="0.514698" x2="10.6723" y2="30.5145" gradientUnits="userSpaceOnUse">
<stop offset="3.2e-07" stop-color="#5A5A5A"/>
<stop offset="1" stop-color="#D7D7D7"/>
</linearGradient>
<linearGradient id="paint2_linear_1_511" x1="10.9256" y1="4.78983" x2="10.9256" y2="30.5145" gradientUnits="userSpaceOnUse">
<stop stop-color="#D0D0D0"/>
<stop offset="1" stop-color="#D2D2D2"/>
</linearGradient>
<linearGradient id="paint3_linear_1_511" x1="10.9256" y1="4.78983" x2="10.9256" y2="30.5145" gradientUnits="userSpaceOnUse">
<stop stop-color="#898989"/>
<stop offset="1" stop-color="#9D9D9D"/>
</linearGradient>
<linearGradient id="paint4_linear_1_511" x1="10.3401" y1="11.799" x2="10.3401" y2="30.5145" gradientUnits="userSpaceOnUse">
<stop stop-color="#A6A6A6"/>
<stop offset="1" stop-color="#DDDDDD"/>
</linearGradient>
<linearGradient id="paint5_linear_1_511" x1="10.3401" y1="11.799" x2="10.3401" y2="30.5145" gradientUnits="userSpaceOnUse">
<stop stop-color="#DADADA"/>
<stop offset="1" stop-color="white"/>
</linearGradient>
<linearGradient id="paint6_linear_1_511" x1="10.2667" y1="17.8823" x2="10.2667" y2="30.5145" gradientUnits="userSpaceOnUse">
<stop offset="1e-07" stop-color="#BCBCBC"/>
<stop offset="1" stop-color="#FCFCFC"/>
</linearGradient>
</defs>
</svg>
