<svg width="21" height="31" viewBox="0 0 21 31" fill="none" xmlns="http://www.w3.org/2000/svg">
<path d="M7.82998 30.3353C5.54374 29.9803 3.1581 28.1768 2.22088 26.487C0.942863 24.1724 0.971263 21.7157 1.36887 19.1739C2.41969 12.5282 1.36887 11.6762 0.275452 10.3555C2.13568 11.1507 3.86811 11.8182 5.00413 13.224C6.39576 8.9213 6.77916 5.64105 12.2463 0.486359C12.0617 1.69338 11.7208 2.9004 11.7066 4.13582C11.6356 7.96989 14.7313 11.4915 15.3845 12.372C17.1453 14.7292 18.0968 17.2852 18.04 20.1253V20.5371C18.9488 19.7419 19.5452 18.3645 19.7156 16.6178C20.88 18.0663 21.1782 20.6933 20.6812 22.5109C19.4742 26.9556 16.8471 29.2703 12.6865 30.3069C11.4652 30.6193 9.12221 30.5341 7.82998 30.3353Z" fill="url(#paint0_linear_1_479)"/>
<path opacity="0.42" d="M7.82998 30.3353C5.54374 29.9803 3.1581 28.1768 2.22088 26.487C0.942863 24.1724 0.971263 21.7157 1.36887 19.1739C2.41969 12.5282 1.36887 11.6762 0.275452 10.3555C2.13568 11.1507 3.86811 11.8182 5.00413 13.224C6.39576 8.9213 6.77916 5.64105 12.2463 0.486359C12.0617 1.69338 11.7208 2.9004 11.7066 4.13582C11.6356 7.96989 14.7313 11.4915 15.3845 12.372C17.1453 14.7292 18.0968 17.2852 18.04 20.1253V20.5371C18.9488 19.7419 19.5452 18.3645 19.7156 16.6178C20.88 18.0663 21.1782 20.6933 20.6812 22.5109C19.4742 26.9556 16.8471 29.2703 12.6865 30.3069C11.4652 30.6193 9.12221 30.5341 7.82998 30.3353Z" fill="url(#paint1_linear_1_479)"/>
<path d="M7.81477 30.3637C6.15334 30.0655 4.42091 28.5176 3.7393 27.0692C2.81628 25.0812 2.83048 22.9795 3.11449 20.8069C3.8813 15.1126 3.11449 14.3884 2.31927 13.2524C3.6683 13.934 4.93212 14.502 5.75573 15.7232C6.76395 12.0453 7.04796 9.2195 11.024 4.80322C10.8962 5.83984 10.6406 6.87646 10.6264 7.92728C10.5838 11.2217 12.8843 13.5364 13.3529 14.2748C14.6309 16.2912 16.3775 18.1231 16.3917 20.1253C16.3917 21.9571 15.1563 24.1298 15.1563 23.7747C16.2497 23.4907 18.6212 22.0707 19.2176 20.5371C19.7572 23.1499 18.6354 25.1522 17.9111 26.2598C16.6899 28.12 15.1563 29.4548 12.6713 30.3211C11.805 30.6051 8.75199 30.5341 7.81477 30.3637Z" fill="url(#paint2_linear_1_479)"/>
<path opacity="0.42" d="M7.81477 30.3637C6.15334 30.0655 4.42091 28.5176 3.7393 27.0692C2.81628 25.0812 2.83048 22.9795 3.11449 20.8069C3.8813 15.1126 3.11449 14.3884 2.31927 13.2524C3.6683 13.934 4.93212 14.502 5.75573 15.7232C6.76395 12.0453 7.04796 9.2195 11.024 4.80322C10.8962 5.83984 10.6406 6.87646 10.6264 7.92728C10.5838 11.2217 12.8843 13.5364 13.3529 14.2748C14.6309 16.2912 16.3775 18.1231 16.3917 20.1253C16.3917 21.9571 15.1563 24.1298 15.1563 23.7747C16.2497 23.4907 18.6212 22.0707 19.2176 20.5371C19.7572 23.1499 18.6354 25.1522 17.9111 26.2598C16.6899 28.12 15.1563 29.4548 12.6713 30.3211C11.805 30.6051 8.75199 30.5341 7.81477 30.3637Z" fill="url(#paint3_linear_1_479)"/>
<path d="M8.58346 30.3353C7.49004 30.0939 6.38243 29.4122 5.62981 28.3756C4.9624 27.4668 4.69259 25.9474 4.9624 24.499C5.37421 22.1985 5.48781 19.0887 4.9624 18.1798C5.85701 18.7195 6.68063 19.1739 7.23444 20.1395C7.90185 17.2142 7.70305 15.2972 10.3301 11.7897C10.2449 12.6133 10.0745 13.437 10.0745 14.2748C10.0461 16.8876 11.5229 18.123 12.2613 18.9893C13.6814 20.6791 14.5334 22.4541 14.5334 24.0303C14.5334 25.493 13.937 25.919 13.2269 26.629C14.2636 26.3592 14.9878 26.0752 15.641 25.3084C15.8824 27.41 13.2269 29.9092 11.2389 30.3921C10.2591 30.6193 9.20827 30.4773 8.58346 30.3353Z" fill="url(#paint4_linear_1_479)"/>
<path opacity="0.42" d="M8.58346 30.3353C7.49004 30.0939 6.38243 29.4122 5.62981 28.3756C4.9624 27.4668 4.69259 25.9474 4.9624 24.499C5.37421 22.1985 5.48781 19.0887 4.9624 18.1798C5.85701 18.7195 6.68063 19.1739 7.23444 20.1395C7.90185 17.2142 7.70305 15.2972 10.3301 11.7897C10.2449 12.6133 10.0745 13.437 10.0745 14.2748C10.0461 16.8876 11.5229 18.123 12.2613 18.9893C13.6814 20.6791 14.5334 22.4541 14.5334 24.0303C14.5334 25.493 13.937 25.919 13.2269 26.629C14.2636 26.3592 14.9878 26.0752 15.641 25.3084C15.8824 27.41 13.2269 29.9092 11.2389 30.3921C10.2591 30.6193 9.20827 30.4773 8.58346 30.3353Z" fill="url(#paint5_linear_1_479)"/>
<path d="M9.02373 30.3921C8.32792 30.2359 7.5469 29.7956 7.06409 29.114C6.63809 28.5034 6.48188 27.339 6.72329 26.3876C7.1635 24.5984 7.04989 22.7665 6.72329 22.1701C7.2913 22.5393 7.81671 22.8375 8.17171 23.4765C8.59772 21.5169 8.46992 20.2531 10.1455 17.8958C10.0887 18.4497 9.98934 19.0035 9.97514 19.5573C9.96094 21.3039 10.8982 22.1275 11.3668 22.7097C12.2756 23.8315 12.5454 25.0244 12.5596 26.0752C12.5596 27.055 12.1762 27.5804 11.736 28.0632C12.4886 28.0206 13.3264 27.5804 13.7382 27.0692C13.8944 28.475 12.1336 30.1365 10.8698 30.4631C10.2449 30.5909 9.42133 30.4773 9.02373 30.3921Z" fill="url(#paint6_linear_1_479)"/>
<defs>
<linearGradient id="paint0_linear_1_479" x1="10.5843" y1="0.514759" x2="10.5843" y2="30.5146" gradientUnits="userSpaceOnUse">
<stop offset="3.2e-07" stop-color="#E65100"/>
<stop offset="1" stop-color="#FF8F00"/>
</linearGradient>
<linearGradient id="paint1_linear_1_479" x1="10.5843" y1="0.514759" x2="10.5843" y2="30.5146" gradientUnits="userSpaceOnUse">
<stop offset="3.2e-07" stop-color="#FF0000"/>
<stop offset="0.0379952" stop-color="#FF2100"/>
<stop offset="0.0990409" stop-color="#FF4F00"/>
<stop offset="0.1657" stop-color="#FF7900"/>
<stop offset="0.2366" stop-color="#FF9D00"/>
<stop offset="0.3129" stop-color="#FFBC00"/>
<stop offset="0.3961" stop-color="#FFD400"/>
<stop offset="0.4892" stop-color="#FFE700"/>
<stop offset="0.5974" stop-color="#FFF500"/>
<stop offset="0.735" stop-color="#FFFD00"/>
<stop offset="1" stop-color="#FFFF00"/>
</linearGradient>
<linearGradient id="paint2_linear_1_479" x1="10.8376" y1="4.78989" x2="10.8376" y2="30.5145" gradientUnits="userSpaceOnUse">
<stop offset="3.2e-07" stop-color="#FF8F00"/>
<stop offset="1" stop-color="#FFB300"/>
</linearGradient>
<linearGradient id="paint3_linear_1_479" x1="10.8376" y1="4.78989" x2="10.8376" y2="30.5145" gradientUnits="userSpaceOnUse">
<stop offset="3.2e-07" stop-color="#FF0000"/>
<stop offset="0.0379952" stop-color="#FF2100"/>
<stop offset="0.0990409" stop-color="#FF4F00"/>
<stop offset="0.1657" stop-color="#FF7900"/>
<stop offset="0.2366" stop-color="#FF9D00"/>
<stop offset="0.3129" stop-color="#FFBC00"/>
<stop offset="0.3961" stop-color="#FFD400"/>
<stop offset="0.4892" stop-color="#FFE700"/>
<stop offset="0.5974" stop-color="#FFF500"/>
<stop offset="0.735" stop-color="#FFFD00"/>
<stop offset="1" stop-color="#FFFF00"/>
</linearGradient>
<linearGradient id="paint4_linear_1_479" x1="10.252" y1="11.799" x2="10.252" y2="30.5145" gradientUnits="userSpaceOnUse">
<stop offset="2.2e-07" stop-color="#FFB300"/>
<stop offset="1" stop-color="#FFE287"/>
</linearGradient>
<linearGradient id="paint5_linear_1_479" x1="10.252" y1="11.799" x2="10.252" y2="30.5145" gradientUnits="userSpaceOnUse">
<stop offset="2.1e-07" stop-color="#FFD54F"/>
<stop offset="0.0457761" stop-color="#FFDB43"/>
<stop offset="0.1602" stop-color="#FFE82B"/>
<stop offset="0.2895" stop-color="#FFF317"/>
<stop offset="0.44" stop-color="#FFFA0A"/>
<stop offset="0.6313" stop-color="#FFFE02"/>
<stop offset="1" stop-color="#FFFF00"/>
</linearGradient>
<linearGradient id="paint6_linear_1_479" x1="10.1786" y1="17.8824" x2="10.1786" y2="30.5145" gradientUnits="userSpaceOnUse">
<stop offset="1e-07" stop-color="#FFD54F"/>
<stop offset="0.7931" stop-color="#FFE7D1"/>
<stop offset="1" stop-color="#FFECF4"/>
</linearGradient>
</defs>
</svg>
