<svg width="21" height="30" viewBox="0 0 21 30" fill="none" xmlns="http://www.w3.org/2000/svg">
<path d="M7.66732 28.9605C5.45212 28.6165 3.14061 26.8691 2.23252 25.2318C0.994206 22.9891 1.02172 20.6088 1.40698 18.1459C2.42514 11.7067 1.40698 10.8812 0.347534 9.60159C2.14996 10.3721 3.82856 11.0188 4.92928 12.3809C6.27766 8.21194 6.64915 5.03361 11.9464 0.039093C11.7675 1.20861 11.4373 2.37812 11.4235 3.57515C11.3547 7.29008 14.3542 10.7023 14.9871 11.5554C16.6932 13.8394 17.6151 16.316 17.56 19.0678V19.4668C18.4406 18.6963 19.0185 17.3617 19.1836 15.6693C20.3118 17.0727 20.6008 19.6181 20.1192 21.3793C18.9497 25.6859 16.4043 27.9286 12.3729 28.933C11.1896 29.2357 8.91939 29.1531 7.66732 28.9605Z" fill="url(#paint0_linear_1_602)"/>
<path opacity="0.42" d="M7.66732 28.9605C5.45212 28.6165 3.14061 26.8691 2.23252 25.2318C0.994206 22.9891 1.02172 20.6088 1.40698 18.1459C2.42514 11.7067 1.40698 10.8812 0.347534 9.60159C2.14996 10.3721 3.82856 11.0188 4.92928 12.3809C6.27766 8.21194 6.64915 5.03361 11.9464 0.039093C11.7675 1.20861 11.4373 2.37812 11.4235 3.57515C11.3547 7.29008 14.3542 10.7023 14.9871 11.5554C16.6932 13.8394 17.6151 16.316 17.56 19.0678V19.4668C18.4406 18.6963 19.0185 17.3617 19.1836 15.6693C20.3118 17.0727 20.6008 19.6181 20.1192 21.3793C18.9497 25.6859 16.4043 27.9286 12.3729 28.933C11.1896 29.2357 8.91939 29.1531 7.66732 28.9605Z" fill="url(#paint1_linear_1_602)"/>
<path d="M7.65078 28.9865C6.04098 28.6976 4.36238 27.1979 3.70195 25.7944C2.80761 23.8682 2.82137 21.8319 3.09655 19.7267C3.83954 14.2094 3.09655 13.5077 2.32605 12.4069C3.63315 13.0674 4.8577 13.6177 5.65573 14.801C6.63262 11.2374 6.9078 8.49938 10.7603 4.22034C10.6365 5.22474 10.3888 6.22915 10.3751 7.24732C10.3338 10.4394 12.5627 12.6821 13.0168 13.3976C14.2551 15.3514 15.9475 17.1263 15.9612 19.0663C15.9612 20.8412 14.7642 22.9463 14.7642 22.6024C15.8236 22.3272 18.1214 20.9513 18.6993 19.4653C19.2221 21.997 18.1351 23.937 17.4334 25.0102C16.2502 26.8126 14.7642 28.106 12.3564 28.9452C11.5171 29.2204 8.55887 29.1516 7.65078 28.9865Z" fill="url(#paint2_linear_1_602)"/>
<path opacity="0.42" d="M7.65078 28.9865C6.04098 28.6976 4.36238 27.1979 3.70195 25.7944C2.80761 23.8682 2.82137 21.8319 3.09655 19.7267C3.83954 14.2094 3.09655 13.5077 2.32605 12.4069C3.63315 13.0674 4.8577 13.6177 5.65573 14.801C6.63262 11.2374 6.9078 8.49938 10.7603 4.22034C10.6365 5.22474 10.3888 6.22915 10.3751 7.24732C10.3338 10.4394 12.5627 12.6821 13.0168 13.3976C14.2551 15.3514 15.9475 17.1263 15.9612 19.0663C15.9612 20.8412 14.7642 22.9463 14.7642 22.6024C15.8236 22.3272 18.1214 20.9513 18.6993 19.4653C19.2221 21.997 18.1351 23.937 17.4334 25.0102C16.2502 26.8126 14.7642 28.106 12.3564 28.9452C11.5171 29.2204 8.55887 29.1516 7.65078 28.9865Z" fill="url(#paint3_linear_1_602)"/>
<path d="M8.39778 28.959C7.33834 28.7251 6.26514 28.0647 5.53591 27.0603C4.88924 26.1797 4.62782 24.7075 4.88924 23.3041C5.28825 21.0751 5.39832 18.0619 4.88924 17.1813C5.75605 17.7042 6.55407 18.1444 7.09068 19.0801C7.73735 16.2457 7.54472 14.3882 10.0901 10.9898C10.0076 11.7878 9.84247 12.5858 9.84247 13.3976C9.81496 15.9292 11.2459 17.1263 11.9614 17.9656C13.3373 19.6029 14.1628 21.3228 14.1628 22.85C14.1628 24.2672 13.5849 24.68 12.897 25.3679C13.9014 25.1065 14.6031 24.8313 15.236 24.0883C15.4699 26.1247 12.897 28.5462 10.9707 29.014C10.0213 29.2342 9.00318 29.0966 8.39778 28.959Z" fill="url(#paint4_linear_1_602)"/>
<path opacity="0.42" d="M8.39778 28.959C7.33834 28.7251 6.26514 28.0647 5.53591 27.0603C4.88924 26.1797 4.62782 24.7075 4.88924 23.3041C5.28825 21.0751 5.39832 18.0619 4.88924 17.1813C5.75605 17.7042 6.55407 18.1444 7.09068 19.0801C7.73735 16.2457 7.54472 14.3882 10.0901 10.9898C10.0076 11.7878 9.84247 12.5858 9.84247 13.3976C9.81496 15.9292 11.2459 17.1263 11.9614 17.9656C13.3373 19.6029 14.1628 21.3228 14.1628 22.85C14.1628 24.2672 13.5849 24.68 12.897 25.3679C13.9014 25.1065 14.6031 24.8313 15.236 24.0883C15.4699 26.1247 12.897 28.5462 10.9707 29.014C10.0213 29.2342 9.00318 29.0966 8.39778 28.959Z" fill="url(#paint5_linear_1_602)"/>
<path d="M8.82346 29.014C8.14927 28.8627 7.39253 28.4362 6.92472 27.7757C6.51195 27.1841 6.36061 26.0558 6.59451 25.134C7.02104 23.4004 6.91097 21.6254 6.59451 21.0476C7.14487 21.4053 7.65395 21.6942 7.99793 22.3134C8.4107 20.4147 8.28686 19.1901 9.91042 16.9061C9.85539 17.4427 9.75908 17.9793 9.74532 18.5159C9.73156 20.2083 10.6397 21.0063 11.0937 21.5704C11.9743 22.6574 12.2357 23.8131 12.2495 24.8313C12.2495 25.7807 11.878 26.2897 11.4514 26.7576C12.1807 26.7163 12.9924 26.2897 13.3915 25.7944C13.5428 27.1566 11.8367 28.7664 10.6121 29.0828C10.0067 29.2067 9.20872 29.0966 8.82346 29.014Z" fill="url(#paint6_linear_1_602)"/>
<defs>
<linearGradient id="paint0_linear_1_602" x1="10.3361" y1="0.066611" x2="10.3361" y2="29.1342" gradientUnits="userSpaceOnUse">
<stop offset="3.2e-07" stop-color="#E65100"/>
<stop offset="1" stop-color="#FF8F00"/>
</linearGradient>
<linearGradient id="paint1_linear_1_602" x1="10.3361" y1="0.066611" x2="10.3361" y2="29.1342" gradientUnits="userSpaceOnUse">
<stop offset="3.2e-07" stop-color="#FF0000"/>
<stop offset="0.0379952" stop-color="#FF2100"/>
<stop offset="0.0990409" stop-color="#FF4F00"/>
<stop offset="0.1657" stop-color="#FF7900"/>
<stop offset="0.2366" stop-color="#FF9D00"/>
<stop offset="0.3129" stop-color="#FFBC00"/>
<stop offset="0.3961" stop-color="#FFD400"/>
<stop offset="0.4892" stop-color="#FFE700"/>
<stop offset="0.5974" stop-color="#FFF500"/>
<stop offset="0.735" stop-color="#FFFD00"/>
<stop offset="1" stop-color="#FFFF00"/>
</linearGradient>
<linearGradient id="paint2_linear_1_602" x1="10.5797" y1="4.20742" x2="10.5797" y2="29.1327" gradientUnits="userSpaceOnUse">
<stop offset="3.2e-07" stop-color="#FF8F00"/>
<stop offset="1" stop-color="#FFB300"/>
</linearGradient>
<linearGradient id="paint3_linear_1_602" x1="10.5797" y1="4.20742" x2="10.5797" y2="29.1327" gradientUnits="userSpaceOnUse">
<stop offset="3.2e-07" stop-color="#FF0000"/>
<stop offset="0.0379952" stop-color="#FF2100"/>
<stop offset="0.0990409" stop-color="#FF4F00"/>
<stop offset="0.1657" stop-color="#FF7900"/>
<stop offset="0.2366" stop-color="#FF9D00"/>
<stop offset="0.3129" stop-color="#FFBC00"/>
<stop offset="0.3961" stop-color="#FFD400"/>
<stop offset="0.4892" stop-color="#FFE700"/>
<stop offset="0.5974" stop-color="#FFF500"/>
<stop offset="0.735" stop-color="#FFFD00"/>
<stop offset="1" stop-color="#FFFF00"/>
</linearGradient>
<linearGradient id="paint4_linear_1_602" x1="10.0145" y1="10.9988" x2="10.0145" y2="29.1327" gradientUnits="userSpaceOnUse">
<stop offset="2.2e-07" stop-color="#FFB300"/>
<stop offset="1" stop-color="#FFE287"/>
</linearGradient>
<linearGradient id="paint5_linear_1_602" x1="10.0145" y1="10.9988" x2="10.0145" y2="29.1327" gradientUnits="userSpaceOnUse">
<stop offset="2.1e-07" stop-color="#FFD54F"/>
<stop offset="0.0457761" stop-color="#FFDB43"/>
<stop offset="0.1602" stop-color="#FFE82B"/>
<stop offset="0.2895" stop-color="#FFF317"/>
<stop offset="0.44" stop-color="#FFFA0A"/>
<stop offset="0.6313" stop-color="#FFFE02"/>
<stop offset="1" stop-color="#FFFF00"/>
</linearGradient>
<linearGradient id="paint6_linear_1_602" x1="9.94247" y1="16.8931" x2="9.94247" y2="29.1327" gradientUnits="userSpaceOnUse">
<stop offset="1e-07" stop-color="#FFD54F"/>
<stop offset="0.7931" stop-color="#FFE7D1"/>
<stop offset="1" stop-color="#FFECF4"/>
</linearGradient>
</defs>
</svg>
